<mxfile host="65bd71144e" modified="2021-02-18T20:58:09.135Z" agent="5.0 (Macintosh; Intel Mac OS X 11_2_1) AppleWebKit/537.36 (KHTML, like Gecko) Code/1.53.1 Chrome/87.0.4280.141 Electron/11.2.1 Safari/537.36" etag="o8-m-mgeWSb6NG3zofad" version="14.2.4" type="embed">
    <diagram id="FKqktztcBN4K4i71OJ5Y" name="ページ1">
        <mxGraphModel dx="665" dy="584" grid="1" gridSize="10" guides="1" tooltips="1" connect="1" arrows="1" fold="1" page="1" pageScale="1" pageWidth="827" pageHeight="1169" background="none" math="0" shadow="0">
            <root>
                <mxCell id="0"/>
                <mxCell id="1" parent="0"/>
                <mxCell id="5" value="" style="whiteSpace=wrap;html=1;aspect=fixed;fontSize=12;strokeWidth=6;rounded=1;strokeColor=#FFFFFF;fillColor=#26A69A;" parent="1" vertex="1">
                    <mxGeometry x="370" y="339" width="80" height="80" as="geometry"/>
                </mxCell>
                <mxCell id="7" value="" style="ellipse;whiteSpace=wrap;html=1;rotation=90;strokeWidth=4;strokeColor=#FFFFFF;fillColor=#FFFFFF;" parent="1" vertex="1">
                    <mxGeometry x="439.5" y="377.5" width="25" height="20" as="geometry"/>
                </mxCell>
                <mxCell id="8" value="&lt;font style=&quot;font-size: 36px;&quot;&gt;Yonde&lt;/font&gt;" style="text;html=1;resizable=0;autosize=1;align=center;verticalAlign=middle;points=[];rounded=0;fontColor=#FFFFFF;strokeWidth=1;fontStyle=1;fontFamily=Courier New;fontSize=36;" parent="1" vertex="1">
                    <mxGeometry x="350" y="415" width="120" height="50" as="geometry"/>
                </mxCell>
                <mxCell id="10" value="" style="ellipse;whiteSpace=wrap;html=1;rotation=90;strokeWidth=4;strokeColor=#FFFFFF;fillColor=#FFFFFF;" parent="1" vertex="1">
                    <mxGeometry x="356" y="377.5" width="25" height="20" as="geometry"/>
                </mxCell>
            </root>
        </mxGraphModel>
    </diagram>
</mxfile>
